Coordinates
version=1
nRows=9
nColumns=63
inDegrees=yes

Units are S.I. units (second, meters, Newtons, ...)
If the header above contains a line with 'inDegrees', this indicates whether rotational values are in degrees (yes) or radians (no).

endheader
time	pelvis_tilt	pelvis_list	pelvis_rotation	pelvis_tx	pelvis_ty	pelvis_tz	hip_flexion_r	hip_adduction_r	hip_rotation_r	knee_angle_r	knee_angle_r_beta	ankle_angle_r	subtalar_angle_r	mtp_angle_r	hip_flexion_l	hip_adduction_l	hip_rotation_l	knee_angle_l	knee_angle_l_beta	ankle_angle_l	subtalar_angle_l	mtp_angle_l	L5_S1_Flex_Ext	L5_S1_Lat_Bending	L5_S1_axial_rotation	L4_L5_Flex_Ext	L4_L5_Lat_Bending	L4_L5_axial_rotation	L3_L4_Flex_Ext	L3_L4_Lat_Bending	L3_L4_axial_rotation	L2_L3_Flex_Ext	L2_L3_Lat_Bending	L2_L3_axial_rotation	L1_L2_Flex_Ext	L1_L2_Lat_Bending	L1_L2_axial_rotation	L1_T12_Flex_Ext	L1_T12_Lat_Bending	L1_T12_axial_rotation	Abs_r3	Abs_r2	Abs_r1	Abs_t1	Abs_t2	neck_flexion	neck_bending	neck_rotation	arm_flex_r	arm_add_r	arm_rot_r	elbow_flex_r	pro_sup_r	wrist_flex_r	wrist_dev_r	arm_flex_l	arm_add_l	arm_rot_l	elbow_flex_l	pro_sup_l	wrist_flex_l	wrist_dev_l
      0.00000000	     -3.05420800	     -6.71839773	     78.65739678	      0.24709534	      0.40671615	      0.91468645	      2.11416254	      1.65720641	     -0.73851355	      3.76816338	      0.06576686	     16.40515026	      0.12939371	      0.00000000	      5.47650279	     -2.82651690	     -8.88181917	     10.55646442	      0.18424506	     22.45217507	     15.87430371	      0.00000000	     -0.13124473	      0.44693392	     -1.87253262	     -0.24373458	      0.59442211	     -1.98956590	     -0.21562196	      1.08667513	     -1.98956590	     -0.14999960	      1.08667513	     -1.63846604	     -0.12187385	      0.91138765	     -1.52143275	     -0.07499324	      0.69230064	     -1.40439946	     -0.93746795	      5.05580589	    -10.41446465	      0.00000000	      0.00000000	     20.63163112	     -2.99879215	      6.30259634	     21.44470723	    -10.92246875	     76.01416299	     47.28696897	     87.22264234	      4.17515790	     -2.51674182	     12.92034050	    -15.38996513	     59.52636009	     49.64699642	     59.68364732	     16.74864556	     -2.89488443
      0.01694915	     -3.77556910	     -6.65025395	     77.98791001	      0.24666442	      0.40627734	      0.91679131	      2.46526933	      0.81816961	     -1.06128879	      4.45782721	      0.07780376	     15.80726316	      0.26982530	      0.00000000	      5.46097761	     -1.93927070	     -8.77216826	     10.49734672	      0.18321326	     21.69577372	     14.34652508	      0.00000000	     -0.12983867	      0.35776878	     -1.67126583	     -0.24112340	      0.47583248	     -1.77571995	     -0.21331195	      0.86987902	     -1.77571995	     -0.14839262	      0.86987902	     -1.46235760	     -0.12056819	      0.72956211	     -1.35790349	     -0.07418982	      0.55418385	     -1.25344937	     -0.92742465	      4.04715205	     -9.29507917	      0.00000000	      0.00000000	     20.57266020	     -2.81470351	      5.33053409	     19.92388588	    -10.91385910	     71.74123117	     47.26981420	     83.70267667	      6.88645979	     -1.04551149	     13.64264984	    -15.55593834	     60.66276671	     49.99494771	     58.70954041	     14.97935178	     -1.43849829
      0.03389831	     -4.48442603	     -6.63905358	     77.65666367	      0.24666875	      0.40572705	      0.91821047	      2.78531351	      0.05367775	     -1.28136268	      4.89960182	      0.08551418	     15.66087871	      0.30273052	      0.00000000	      5.53843994	     -1.12017403	     -8.66370204	     10.35758850	      0.18077402	     21.20112653	     13.44731265	      0.00000000	     -0.11932624	      0.27043510	     -1.58958122	     -0.22160075	      0.35967868	     -1.68893005	     -0.19604107	      0.65753589	     -1.68893005	     -0.13637795	      0.65753589	     -1.39088357	     -0.11080634	      0.55147125	     -1.29153474	     -0.06818301	      0.41890396	     -1.19218592	     -0.85233537	      3.05921588	     -8.84077389	      0.00000000	      0.00000000	     20.66097517	     -2.37412113	      5.13967079	     18.87459583	    -10.64694783	     69.21528583	     47.17984594	     81.12961923	      7.55248200	     -0.38297222	     13.93635333	    -15.88849512	     61.17858385	     50.34215033	     58.02491120	     13.89011109	     -0.59812526
      0.05084746	     -5.04019627	     -6.54769078	     77.42251872	      0.24652972	      0.40532288	      0.91896965	      2.88917677	     -0.57011402	     -1.28979509	      5.06033565	      0.08831952	     15.78230261	      0.31722217	      0.00000000	      5.46026647	     -0.41301274	     -8.49884588	     10.05900384	      0.17556274	     20.89122572	     12.69951414	      0.00000000	     -0.12934370	      0.20764060	     -1.52455995	     -0.24020418	      0.27616200	     -1.61984495	     -0.21249876	      0.50485737	     -1.61984495	     -0.14782691	      0.50485737	     -1.33398996	     -0.12010856	      0.42342072	     -1.23870496	     -0.07390699	      0.32163530	     -1.14341996	     -0.92388908	      2.34887204	     -8.47914508	      0.00000000	      0.00000000	     20.99839069	     -2.46372248	      4.94197970	     18.29007707	    -10.53230942	     67.68515695	     47.35079112	     79.11690682	      8.11966808	      1.05786788	     14.23011819	    -16.13923595	     61.76890892	     50.74316812	     57.37936507	     12.75045667	      0.21516891
      0.06779661	     -5.25097646	     -6.55882861	     77.48147082	      0.24612544	      0.40498594	      0.91911680	      2.92064420	     -0.84852541	     -1.91558031	      5.00534467	      0.08735974	     16.14274848	      1.21901548	      0.00000000	      5.50273312	     -0.09196408	     -8.14035972	      9.90580411	      0.17288890	     20.92045501	     12.18125467	      0.00000000	     -0.13358722	      0.18869007	     -1.53837081	     -0.24808482	      0.25095780	     -1.63451899	     -0.21947044	      0.45878104	     -1.63451899	     -0.15267683	      0.45878104	     -1.34607446	     -0.12404909	      0.38477680	     -1.24992629	     -0.07633173	      0.29228092	     -1.15377811	     -0.95420012	      2.13449983	     -8.55595695	      0.00000000	      0.00000000	     21.20358520	     -2.44900182	      4.91453622	     18.25824377	    -10.65078090	     67.87893120	     47.66369268	     76.90826455	      7.71211945	      1.93388021	     14.30476555	    -16.18090222	     62.12631040	     50.91080410	     56.34141016	     11.65485806	      0.77320713
      0.08474576	     -5.58901786	     -6.53908239	     77.40216116	      0.24661825	      0.40453983	      0.91883138	      2.90350209	     -1.13868119	     -0.83314615	      4.82443037	      0.08420219	     16.37789336	      0.02193142	      0.00000000	      5.42392743	      0.27164499	     -8.60786287	      9.55921071	      0.16683970	     21.03459223	     12.73258922	      0.00000000	     -0.13417913	      0.15059680	     -1.51746259	     -0.24918407	      0.20029375	     -1.61230400	     -0.22044290	      0.36616106	     -1.61230400	     -0.15335333	      0.36616106	     -1.32777977	     -0.12459874	      0.30709700	     -1.23293835	     -0.07666996	      0.23327444	     -1.13809694	     -0.95842814	      1.70358113	     -8.43967168	      0.00000000	      0.00000000	     21.55722575	     -2.42236076	      4.97395532	     17.68512941	    -10.48114838	     66.30391852	     47.89818652	     80.03449968	      7.99411762	      2.54143272	     14.33403374	    -16.40189480	     62.51019796	     51.16510719	     56.26940094	     10.94787646	      0.74171270
      0.10169492	     -5.70758729	     -6.46631659	     77.62002738	      0.24677673	      0.40425807	      0.91813462	      2.70587707	     -1.30112816	     -1.52488504	      4.57641492	      0.07987351	     16.96736962	      1.07986560	      0.00000000	      5.27312514	      0.46644809	     -8.44263741	      9.25120167	      0.16146393	     21.21310236	     12.83785889	      0.00000000	     -0.14263494	      0.13544155	     -1.56964781	     -0.26488734	      0.18013726	     -1.66775079	     -0.23433494	      0.32931258	     -1.66775079	     -0.16301747	      0.32931258	     -1.37344183	     -0.13245080	      0.27619241	     -1.27533884	     -0.08150160	      0.20979896	     -1.17723585	     -1.01882709	      1.53214190	     -8.72991021	      0.00000000	      0.00000000	     21.84814893	     -2.54032486	      5.04045926	     17.67732771	    -10.47565238	     66.71470503	     48.09318828	     78.96552761	      7.38833213	      3.05224484	     14.24144754	    -16.54254578	     62.70947887	     51.42967731	     55.56955473	     10.21366934	      1.15561374
      0.11864407	     -5.92197777	     -6.36912081	     77.58948194	      0.24757610	      0.40391088	      0.91724709	      2.58177156	     -1.49033079	     -0.89797795	      4.50204835	      0.07857557	     17.33251847	      0.48980001	      0.00000000	      5.06248930	      0.67239611	     -9.19846635	      8.93587839	      0.15596050	     21.42357514	     13.82044007	      0.00000000	     -0.14502572	      0.10576163	     -1.59924102	     -0.26932726	      0.14066297	     -1.69919358	     -0.23826275	      0.25714883	     -1.69919358	     -0.16574989	      0.25714883	     -1.39933589	     -0.13467088	      0.21566912	     -1.29938333	     -0.08286769	      0.16382477	     -1.19943077	     -1.03590418	      1.19639673	     -8.89449878	      0.00000000	      0.00000000	     22.08953712	     -2.30422871	      5.41453453	     17.49317342	    -10.16828101	     66.22913427	     48.00713920	     82.52550474	      7.34357205	      2.65175134	     13.87516167	    -16.71479455	     62.29721041	     51.58586854	     55.99896229	     10.22859803	      0.92009263
      0.13559322	     -5.88220194	     -6.27524912	     77.92321404	      0.24785849	      0.40365300	      0.91603474	      2.26458012	     -1.43259623	     -0.83231935	      4.25596078	      0.07428053	     17.47033147	      0.13602764	      0.00000000	      4.84818914	      0.66749032	     -9.10273996	      8.72964526	      0.15236105	     21.61850569	     14.08440374	      0.00000000	     -0.14979961	      0.10223050	     -1.64946695	     -0.27819285	      0.13596656	     -1.75255864	     -0.24610578	      0.24856323	     -1.75255864	     -0.17120597	      0.24856323	     -1.44328358	     -0.13910392	      0.20846843	     -1.34019190	     -0.08559550	      0.15835504	     -1.23710021	     -1.07000363	      1.15645181	     -9.17384034	      0.00000000	      0.00000000	     22.20217357	     -2.38720788	      5.24599583	     17.23372423	    -10.13914232	     65.86488084	     48.17459466	     82.79998796	      7.35170108	      2.99363251	     13.70272305	    -16.76681673	     62.24798288	     51.92294181	     55.88628246	      9.70986936	      1.66496558
